<svg xmlns="http://www.w3.org/2000/svg" width="29" height="28" viewBox="0 0 29 28">
    <g fill="#FFF" fill-rule="nonzero" opacity=".7">
        <path d="M17.3 8.722l-1.944 1.866L12.646 7 9.5 12h10z"/>
        <path d="M6.266 10.153V19c2.816-.491 5.86-.678 8.234-.678 2.375 0 5.418.187 8.234.678v-8.847C27.092 9.182 29 7.463 29 5.497 29 2.46 23.027 0 14.5 0 5.973 0 0 2.46 0 5.497c0 1.965 1.908 3.685 6.266 4.656zM12.87 4.81l2.512 3.153 1.668-1.52 4.51 6.367h-14l5.31-8zM5 27.5v-7c-3.022.843-5 2.097-5 3.5s1.978 2.657 5 3.5z"/>
        <path d="M5 11.181C2.965 10.542 1.18 9.652 0 8.5v13c1.209-1.025 3.035-1.763 5-2.285V11.18z"/>
        <g>
            <path d="M24 27.5c3.056-.843 5-2.097 5-3.5s-1.944-2.657-5-3.5v7zM29 8.5c-1.192 1.152-2.943 2.042-5 2.681v8.034c1.987.522 3.778 1.26 5 2.285v-13z"/>
        </g>
    </g>
</svg>
