<svg xmlns="http://www.w3.org/2000/svg" width="35" height="35" viewBox="0 0 35 35">
    <g fill="none" fill-rule="nonzero">
        <path fill="#F1F3F5" d="M27.708 16.77v13.126c0 .226-.022.445-.065.663l-6.497-6.497-5.104 5.105-2.188-2.188-5.498 5.498a3.662 3.662 0 0 1-1.064-2.581V16.77a3.647 3.647 0 0 1 3.646-3.646h13.124a3.647 3.647 0 0 1 3.646 3.646z"/>
        <path fill="#3574FA" d="M21.146 24.063l6.497 6.496a3.635 3.635 0 0 1-3.58 2.983h-3.646l-4.375-4.375 5.104-5.105zM20.417 33.542h-9.48a3.662 3.662 0 0 1-2.58-1.065l5.497-5.498 2.188 2.188 4.375 4.375z"/>
        <g fill="#23262D">
            <path d="M7.331 33.514A5.099 5.099 0 0 0 10.937 35h13.126c2.47 0 4.578-1.759 5.01-4.156a.01.01 0 0 1 .001-.005v-.005c.061-.309.093-.625.093-.938V16.77a5.11 5.11 0 0 0-5.105-5.104H10.938a5.11 5.11 0 0 0-5.104 5.104v13.125a5.099 5.099 0 0 0 1.498 3.618zm3.492-1.442l3.031-3.03 3.042 3.041h-5.959c-.038 0-.075-.01-.114-.01zm13.24.011H21.02l-2.916-2.916 3.042-3.042 4.827 4.827a2.176 2.176 0 0 1-1.91 1.131zM8.75 16.771a2.19 2.19 0 0 1 2.188-2.188h13.124a2.19 2.19 0 0 1 2.188 2.188v10.334l-4.073-4.074a1.458 1.458 0 0 0-2.062 0l-4.073 4.074-1.157-1.157a1.458 1.458 0 0 0-2.062 0L8.761 30.01c-.002-.038-.011-.076-.011-.114V16.77zM33.542 14.583c.805 0 1.458-.653 1.458-1.458 0-4.638-4.45-8.662-11.34-10.251a1.458 1.458 0 1 0-.654 2.841c5.43 1.254 9.077 4.23 9.077 7.41 0 .805.654 1.458 1.459 1.458zM2.917 13.125c0-3.448 4.29-6.576 10.208-7.631v.34A1.46 1.46 0 0 0 15.458 7l2.917-2.188a1.46 1.46 0 0 0 0-2.333L15.458.292a1.46 1.46 0 0 0-2.333 1.166v1.077C5.447 3.75 0 8.073 0 13.125a1.459 1.459 0 0 0 2.917 0z"/>
        </g>
    </g>
</svg>
