<svg xmlns="http://www.w3.org/2000/svg" width="26" height="28" viewBox="0 0 26 28">
    <g fill="#FFF" fill-rule="nonzero">
        <path d="M.322 6.994l12.45 5.992c.144.07.312.07.457 0l12.449-5.992a.527.527 0 0 0 0-.95L13.228.052a.527.527 0 0 0-.457 0L.322 6.044a.527.527 0 0 0 0 .95z"/>
        <path d="M.322 14.262l12.45 5.993c.144.07.312.07.457 0l12.449-5.992a.527.527 0 0 0 0-.95l-2.627-1.264-8.342 4.015c-.53.255-1.12.39-1.709.39a3.967 3.967 0 0 1-1.71-.39L2.95 12.049.322 13.313a.527.527 0 0 0 0 .95z"/>
        <path d="M25.678 20.582l-2.627-1.265-8.342 4.016c-.53.255-1.12.39-1.709.39a3.967 3.967 0 0 1-1.71-.39L2.95 19.316.322 20.582a.527.527 0 0 0 0 .95l12.45 5.992c.144.07.312.07.457 0l12.449-5.993a.527.527 0 0 0 0-.95z"/>
    </g>
</svg>
