<svg xmlns="http://www.w3.org/2000/svg" width="32" height="26" viewBox="0 0 32 26">
    <g fill="none" fill-rule="nonzero" opacity=".2">
        <path fill="#23262D" d="M24.92 15.853L31.7 9.84a1 1 0 0 0 .037-1.461l-4.228-4.155a1 1 0 0 0-1.67.47l-2.55 10.167a1 1 0 0 0 1.633.992zM24.52 1.85L18.216.396a1 1 0 0 0-1.177 1.28l3.828 11.908a1 1 0 0 0 1.925-.075l2.476-10.454a1 1 0 0 0-.748-1.205zM7.93 4.456l10.153 10.528a1 1 0 0 0 1.675-.988L15.766 1.033a1 1 0 0 0-1.323-.636L8.281 2.832a1 1 0 0 0-.352 1.624zM20.586 18.3L7.7 5.414a2 2 0 0 0-2.829 0L1.414 8.872a2 2 0 0 0 0 2.828L14.3 24.586a2 2 0 0 0 2.829 0l3.457-3.458a2 2 0 0 0 0-2.828z"/>
        <path fill="#FFF" d="M15.5 18a1.5 1.5 0 1 1 0 3 1.5 1.5 0 0 1 0-3z"/>
    </g>
</svg>
