<svg xmlns="http://www.w3.org/2000/svg" width="25" height="25" viewBox="0 0 25 25">
    <g fill="#FFF" fill-rule="nonzero" opacity=".2">
        <path d="M17.236 14.04c.145.546-1.448.373-1.837.884-.39.511-1.34.168-1.561.07-.221-.099-1.066.229-.992-.328.073-.556.587-.589 1.139-.818.55-.229 1.345-.99.955-1.09-1.839-.467-2.466-2.106-2.466-2.106-.11-.02-.083-1.158-.56-1.19-.478-.033-.735.13-1.433 0-.698-.132-.551-.557-.661-1.474-.11-.916.294-.622.512-.916.02-.026.044-.049.068-.072-2.556.83-4.4 3.131-4.4 5.834v.013c.475.029 1.34.124 1.381.433.057.427 0 .961.394 1.121.394.16.507-.64.844-.427.338.214 1.238.42 1.238.797 0 .377-.169.965 0 1.071.17.107.844.854.844.961 0 .107.238.65.167.857-.059.172-.355.707-.643.95.709.251 1.475.39 2.275.39 3.584 0 6.5-2.766 6.5-6.166a5.874 5.874 0 0 0-.71-2.798c.043.627.014 1.199.158 1.386.634.818-1.543 1.38-1.212 2.618z"/>
        <path d="M12.5 0C5.596 0 0 5.597 0 12.5S5.596 25 12.5 25C19.403 25 25 19.403 25 12.5 25 5.596 19.403 0 12.5 0zm0 20.038c-4.157 0-7.539-3.381-7.539-7.538S8.343 4.962 12.5 4.962s7.539 3.381 7.539 7.538-3.382 7.538-7.539 7.538z"/>
    </g>
</svg>
