<svg xmlns="http://www.w3.org/2000/svg" width="20" height="20" viewBox="0 0 20 20">
    <g fill="#FFF" fill-opacity=".4" fill-rule="nonzero">
        <path d="M10 5.958A4.047 4.047 0 0 1 14.042 10a.583.583 0 0 0 1.165 0A5.213 5.213 0 0 0 10 4.793 5.213 5.213 0 0 0 4.792 10 5.213 5.213 0 0 0 10 15.207a5.23 5.23 0 0 0 4.498-2.583.583.583 0 0 0-1.006-.588A4.06 4.06 0 0 1 10 14.042 4.047 4.047 0 0 1 5.957 10 4.047 4.047 0 0 1 10 5.958z"/>
        <path d="M19.97 9.228c-.364-4.86-4.303-8.813-9.16-9.196a10.012 10.012 0 0 0-7.882 2.897 10.013 10.013 0 0 0-2.897 7.88c.382 4.84 4.32 8.777 9.159 9.159a10.005 10.005 0 0 0 7.881-2.897.583.583 0 0 0-.824-.824 8.85 8.85 0 0 1-6.966 2.56c-4.274-.337-7.751-3.815-8.088-8.089a8.85 8.85 0 0 1 2.56-6.966 8.848 8.848 0 0 1 6.965-2.559c4.29.338 7.769 3.83 8.09 8.123a9.033 9.033 0 0 1-.038 1.756 1.856 1.856 0 0 1-.99 1.428 1.607 1.607 0 0 1-1.526-.003.582.582 0 1 0-.555 1.025 2.757 2.757 0 0 0 2.615.013 3.02 3.02 0 0 0 1.613-2.324 10.2 10.2 0 0 0 .044-1.983z"/>
    </g>
</svg>
