<svg xmlns="http://www.w3.org/2000/svg" width="33" height="13" viewBox="0 0 33 13">
    <g fill="none" fill-rule="evenodd">
        <path fill="#FFF" fill-rule="nonzero" d="M30.075 2.689A6.532 6.532 0 0 0 24.784 0a6.533 6.533 0 0 0-5.333 2.747A3.72 3.72 0 0 0 16.5 1.294a3.72 3.72 0 0 0-2.951 1.453A6.533 6.533 0 0 0 8.216 0a6.532 6.532 0 0 0-5.29 2.689H0v1.924h1.965a6.47 6.47 0 0 0-.28 1.887c0 3.59 2.924 6.5 6.531 6.5 3.607 0 6.531-2.91 6.531-6.5 0-.219-.032-1.505-.032-1.505 0-.98.8-1.777 1.785-1.777.984 0 1.785.797 1.785 1.777 0 0-.032 1.286-.032 1.505 0 3.59 2.924 6.5 6.531 6.5 3.607 0 6.531-2.91 6.531-6.5 0-.656-.098-1.29-.28-1.887H33V2.69h-2.925z"/>
        <circle cx="8.5" cy="6.5" r="4.5" fill="#2E3138"/>
        <circle cx="24.5" cy="6.5" r="4.5" fill="#2E3138"/>
    </g>
</svg>
