<svg xmlns="http://www.w3.org/2000/svg" width="16" height="16" viewBox="0 0 16 16">
    <g fill="#FFF" fill-rule="nonzero">
        <path d="M10.523 0h-5.74A4.784 4.784 0 0 0 0 4.783v5.74a4.784 4.784 0 0 0 4.783 4.784h5.74a4.784 4.784 0 0 0 4.784-4.784v-5.74A4.784 4.784 0 0 0 10.523 0zm3.349 10.523a3.352 3.352 0 0 1-3.349 3.349h-5.74a3.352 3.352 0 0 1-3.348-3.349v-5.74a3.352 3.352 0 0 1 3.348-3.348h5.74a3.352 3.352 0 0 1 3.349 3.348v5.74z"/>
        <path d="M7.652 4a3.652 3.652 0 1 0 0 7.305 3.652 3.652 0 0 0 0-7.305zm0 5.935a2.283 2.283 0 1 1 0-4.566 2.283 2.283 0 0 1 0 4.566z"/>
        <circle cx=".669" cy=".669" r="1" transform="translate(11 3)"/>
    </g>
</svg>
