<svg xmlns="http://www.w3.org/2000/svg" width="17" height="25" viewBox="0 0 17 25">
    <g fill="#23262D" fill-rule="nonzero" opacity=".2">
        <path d="M5.656 21.71A9.1 9.1 0 0 1 4.336 20H1a1 1 0 0 0-1 1v3a1 1 0 0 0 1 1h5a1 1 0 0 0 1-1v-.919L5.656 21.71zM14.947 22.67L17 19.04v-4.725a1.44 1.44 0 0 0-1.62-1.426l-.64.082-.17-.623a1.44 1.44 0 0 0-1.798-.998l-.5.15-.31-.42a1.425 1.425 0 0 0-1.287-.578l-.81.074V7.438A1.44 1.44 0 0 0 8.428 6a1.44 1.44 0 0 0-1.436 1.438v7.824l-1.13-.69a1.22 1.22 0 0 0-.624-.18 1.235 1.235 0 0 0-1.003.505 1.23 1.23 0 0 0-.172 1.111l.676 2.024a7.384 7.384 0 0 0 1.623 2.723l1.66 1.775V25h6.925v-2.33z"/>
        <path d="M3.328 18.895l-.671-2.026a2.743 2.743 0 0 1 .376-2.46 2.695 2.695 0 0 1 2.456-1.103v-5.49c0-1.614 1.301-2.927 2.9-2.927 1.6 0 2.902 1.313 2.902 2.928V9.44c.55.107 1.062.373 1.468.765a2.874 2.874 0 0 1 2.241.686V2a2 2 0 0 0-2-2H2a2 2 0 0 0-2 2v15a2 2 0 0 0 2 2h1.364l-.036-.105zM8.39 2.2c3.01 0 5.46 2.473 5.46 5.512h-1.474c0-2.218-1.788-4.023-3.986-4.023-2.198 0-3.987 1.805-3.987 4.023H2.93c0-3.039 2.45-5.512 5.46-5.512z"/>
    </g>
</svg>
