<svg xmlns="http://www.w3.org/2000/svg" width="40" height="25" viewBox="0 0 40 25">
    <g fill="#FFF" fill-rule="nonzero">
        <path d="M37.828 4h-8.991l1.875 15.547c.033.636-.136 1.234-.537 1.703L27 25h10.828C39.026 25 40 23.993 40 22.755V6.295C40 5.057 39.026 4 37.828 4zm-9.927 15.333h-.027a1.024 1.024 0 0 1-.24.365c.074.056.152.102.23.154.042.028.05.08.015.117a.113.113 0 0 1-.14.013c-.084-.056-.163-.103-.242-.164-.08.061-.152.108-.236.164a.113.113 0 0 1-.14-.013c-.034-.036-.027-.089.016-.117.077-.052.149-.098.222-.154a1.013 1.013 0 0 1-.233-.365h-.027c-.055 0-.099-.037-.099-.083 0-.046.044-.083.1-.083h.297v-.084c0-.046.045-.083.1-.083.055 0 .099.037.099.083v.084h.305c.055 0 .099.037.099.083 0 .046-.044.083-.1.083zM38 12.757L35 16l-3-3.243.7-.757 2.3 2.486L37.3 12l.7.757z"/>
        <path d="M26.797 1.962C26.662.843 25.734 0 24.64 0H2.174C.975 0 0 1.005 0 2.24v16.52C0 19.996.975 21 2.174 21h26.43c.211-.249.389-.405.396-.73.002-.081-2.193-18.228-2.203-18.308zM8.007 11.5V14H6.57V6.89h2.422c.703 0 1.264.219 1.682.655.419.436.628 1.003.628 1.7 0 .696-.207 1.246-.62 1.65-.414.403-.987.605-1.72.605zm0-1.196h.986c.274 0 .485-.09.635-.269.15-.179.225-.44.225-.781 0-.355-.077-.637-.23-.847a.736.736 0 0 0-.615-.32H8.007zm6.499-.254l.957-3.16h1.543l-1.948 5.714c-.222.566-.46.955-.716 1.167a1.462 1.462 0 0 1-.92.332h-.156l-.342-.02-.025-1.191c.033.013.139.02.318.02.182 0 .32-.042.412-.123.093-.081.174-.264.242-.547l.068-.259-2.03-5.092h1.537zm8.08 1.582c-.035.81-.263 1.424-.683 1.84-.42.417-1.012.626-1.777.626-.804 0-1.42-.265-1.848-.794-.428-.529-.642-1.283-.642-2.263V9.845c0-.977.221-1.73.664-2.259.443-.529 1.058-.793 1.846-.793.774 0 1.363.216 1.765.65.402.432.63 1.054.686 1.865h-1.44c-.014-.502-.091-.848-.233-1.038-.141-.19-.4-.286-.778-.286-.385 0-.656.135-.816.403-.16.269-.244.71-.254 1.326v1.343c0 .706.08 1.191.237 1.455.158.263.429.395.813.395.378 0 .638-.092.781-.276.143-.184.225-.516.244-.998zM23 22l.13 1.114A2.447 2.447 0 0 0 24.447 25L27 22h-4z"/>
    </g>
</svg>
