<svg xmlns="http://www.w3.org/2000/svg" width="35" height="35" viewBox="0 0 35 35">
    <g fill="none" fill-rule="nonzero">
        <path fill="#F1F3F5" d="M8.75 23.333v6.563a3.647 3.647 0 0 1-3.646 3.646 3.662 3.662 0 0 1-2.581-1.065 3.662 3.662 0 0 1-1.065-2.581V7.292H8.75v16.041z"/>
        <path fill="#B8C2CD" d="M33.542 1.458v27.709a4.378 4.378 0 0 1-4.375 4.375H5.104a3.647 3.647 0 0 0 3.646-3.646V1.458h24.792zm-5.105 12.396V9.48a2.916 2.916 0 0 0-2.916-2.916h-8.75a2.916 2.916 0 0 0-2.917 2.916v4.375a2.916 2.916 0 0 0 2.917 2.917h8.75a2.916 2.916 0 0 0 2.916-2.917z"/>
        <path fill="#3574FA" d="M28.438 9.48v4.374a2.916 2.916 0 0 1-2.917 2.917h-8.75a2.916 2.916 0 0 1-2.917-2.917V9.48a2.916 2.916 0 0 1 2.917-2.916h8.75a2.916 2.916 0 0 1 2.916 2.916z"/>
        <path fill="#23262D" d="M33.542 0H8.75c-.805 0-1.458.653-1.458 1.458v4.375H1.458C.653 5.833 0 6.487 0 7.292v22.604c0 1.357.528 2.638 1.498 3.618A5.099 5.099 0 0 0 5.104 35h24.063A5.84 5.84 0 0 0 35 29.167V1.458C35 .653 34.347 0 33.542 0zM7.292 29.896a2.19 2.19 0 0 1-3.732 1.556 2.2 2.2 0 0 1-.643-1.556V8.75h4.375v21.146zm24.791-.73a2.92 2.92 0 0 1-2.916 2.917H9.715a5.078 5.078 0 0 0 .493-2.187V2.916h21.875v26.25z"/>
        <path fill="#012E52" d="M16.77 18.23h8.75a4.38 4.38 0 0 0 4.376-4.376V9.48a4.38 4.38 0 0 0-4.375-4.375h-8.75a4.38 4.38 0 0 0-4.375 4.375v4.375a4.38 4.38 0 0 0 4.375 4.375zm-1.457-8.75a1.46 1.46 0 0 1 1.458-1.46h8.75a1.46 1.46 0 0 1 1.458 1.46v4.374a1.46 1.46 0 0 1-1.458 1.459h-8.75a1.46 1.46 0 0 1-1.459-1.459V9.48zM13.854 23.333h14.584a1.459 1.459 0 0 0 0-2.916H13.854a1.459 1.459 0 0 0 0 2.916zM13.854 28.438h8.021a1.459 1.459 0 0 0 0-2.917h-8.02a1.459 1.459 0 0 0 0 2.916z"/>
    </g>
</svg>
