<svg xmlns="http://www.w3.org/2000/svg" width="35" height="35" viewBox="0 0 35 35">
    <g fill="none" fill-rule="nonzero">
        <path fill="#B8C2CD" d="M33.542 1.458v26.25H23.333V26.25a4.378 4.378 0 0 0-4.375-4.375H17.5a4.378 4.378 0 0 0 4.375-4.375 4.378 4.378 0 0 0-4.375-4.375 4.378 4.378 0 0 0-4.375 4.375 4.378 4.378 0 0 0 4.375 4.375h-1.458a4.378 4.378 0 0 0-4.375 4.375v1.458H1.458V1.458l4.434.635c3.842.547 7.722.824 11.608.824s7.766-.277 11.608-.824l4.434-.635z"/>
        <path fill="#3574FA" d="M23.333 27.708v5.834H11.667V26.25a4.378 4.378 0 0 1 4.375-4.375h2.916a4.378 4.378 0 0 1 4.375 4.375v1.458z"/>
        <circle cx="17.5" cy="17.5" r="4.375" fill="#3574FA"/>
        <path fill="#23262D" d="M33.335.015L28.903.65a81.042 81.042 0 0 1-22.804 0L1.665.016A1.458 1.458 0 0 0 0 1.458v26.25c0 .805.653 1.459 1.458 1.459h8.75v4.375c0 .805.654 1.458 1.459 1.458h11.666c.805 0 1.459-.653 1.459-1.458v-4.375h8.75c.805 0 1.458-.654 1.458-1.459V1.458a1.46 1.46 0 0 0-.502-1.101 1.45 1.45 0 0 0-1.163-.342zm-11.46 32.068h-8.75V26.25a2.92 2.92 0 0 1 2.917-2.917h2.916a2.92 2.92 0 0 1 2.917 2.917v5.833zM17.5 20.417a2.92 2.92 0 0 1-2.917-2.917 2.92 2.92 0 0 1 2.917-2.917 2.92 2.92 0 0 1 2.917 2.917 2.92 2.92 0 0 1-2.917 2.917zm14.583 5.833h-7.291a5.83 5.83 0 0 0-2.835-4.994 5.805 5.805 0 0 0 1.376-3.756 5.84 5.84 0 0 0-5.833-5.833 5.84 5.84 0 0 0-5.833 5.833c0 1.43.519 2.74 1.376 3.756a5.83 5.83 0 0 0-2.835 4.994H2.917V3.14l2.769.397a84.044 84.044 0 0 0 23.629 0l2.768-.396V26.25z"/>
    </g>
</svg>
