<svg xmlns="http://www.w3.org/2000/svg" width="20" height="20" viewBox="0 0 20 20">
    <g fill="#FFF" fill-opacity=".4" fill-rule="nonzero">
        <path d="M14.039 14.336a.333.333 0 0 0-.078.662c3.505.412 5.372 1.524 5.372 2.169 0 .904-3.55 2.166-9.333 2.166S.667 18.071.667 17.167c0-.645 1.867-1.757 5.372-2.17a.333.333 0 0 0-.078-.661C2.451 14.749 0 15.913 0 17.166 0 18.576 3.435 20 10 20c6.565 0 10-1.425 10-2.833 0-1.254-2.451-2.418-5.961-2.831z"/>
        <path d="M9.941 18.252l5.114-7.385c1.918-2.557 1.64-6.76-.594-8.994A6.35 6.35 0 0 0 9.941 0a6.35 6.35 0 0 0-4.52 1.872C3.187 4.106 2.909 8.31 4.82 10.856l5.121 7.396zM10 4a2.336 2.336 0 0 1 2.333 2.333A2.336 2.336 0 0 1 10 8.667a2.336 2.336 0 0 1-2.333-2.334A2.336 2.336 0 0 1 10 4z"/>
    </g>
</svg>
