<svg xmlns="http://www.w3.org/2000/svg" width="25" height="25" viewBox="0 0 25 25">
    <g fill="#FFF" fill-rule="nonzero">
        <path d="M2.966 17.312c-3.955-3.955-3.955-10.39 0-14.346 3.956-3.955 10.391-3.955 14.346 0 3.356 3.356 3.864 8.346 1.526 12.243 0 0-.168.282.06.509l5.175 5.175c1.03 1.03 1.275 2.47.361 3.384l-.157.157c-.913.914-2.354.669-3.384-.361l-5.165-5.165c-.237-.238-.519-.07-.519-.07-3.897 2.338-8.887 1.83-12.243-1.526zM15.44 15.44c2.923-2.923 2.923-7.678 0-10.6-2.922-2.923-7.677-2.923-10.6 0-2.922 2.922-2.922 7.677 0 10.6 2.923 2.922 7.678 2.922 10.6 0z"/>
        <path d="M14.994 10a.9.9 0 0 0 .391-.091c.512-.247.752-.92.535-1.503-1.362-3.666-5.087-5.387-8.305-3.835-.512.247-.752.92-.535 1.503.217.583.807.856 1.32.609 2.195-1.058 4.737.115 5.666 2.617.163.437.535.7.928.7z"/>
    </g>
</svg>
