<svg xmlns="http://www.w3.org/2000/svg" width="20" height="20" viewBox="0 0 20 20">
    <path fill="#FFF" fill-opacity=".4" fill-rule="nonzero" d="M9.899 0C4.44 0 0 4.44 0 9.9c0 5.458 4.44 9.898 9.899 9.898a.61.61 0 1 0 0-1.22c-4.786 0-8.678-3.893-8.678-8.678 0-4.785 3.892-8.679 8.678-8.679 4.785 0 8.677 3.894 8.677 8.679 0 2-1.064 3.982-2.588 4.821a3.74 3.74 0 0 1-1.793.461c.384-.229.717-.537.964-.927.049-.074.113-.137.145-.218.198-.478.216-1.02.336-1.525.147-.646-2.823-1.905-3.081-1.1-.094.299-.237 1.241-.424 1.49-.167.221-.577.117-.834-.102-.677-.577-1.433-1.425-2.096-2.095h.001a2.405 2.405 0 0 0-.056-.056l-.056-.056c-.67-.662-1.519-1.417-2.095-2.095-.218-.257-.324-.667-.102-.834.248-.188 1.191-.33 1.49-.423.803-.258-.455-3.23-1.1-3.082-.505.119-1.048.137-1.526.335-.081.034-.144.097-.217.145-1.697 1.076-1.916 3.687-.26 5.632.631.744 1.29 1.464 1.967 2.167l-.004.003.058.054.053.058.004-.004c.703.678 1.536 1.675 2.89 2.579 2.85 1.904 5.038 1.372 6.326.665 2.224-1.225 3.22-3.84 3.22-5.89 0-5.462-4.441-9.903-9.9-9.903z"/>
</svg>
