<svg xmlns="http://www.w3.org/2000/svg" width="16" height="14" viewBox="0 0 16 14">
    <path fill="#FFF" fill-rule="nonzero" d="M16 2.045a6.842 6.842 0 0 1-1.89.518A3.26 3.26 0 0 0 15.553.751a6.558 6.558 0 0 1-2.08.79 3.281 3.281 0 0 0-5.677 2.242c-.003.251.023.502.076.747a9.287 9.287 0 0 1-6.758-3.426A3.278 3.278 0 0 0 2.12 5.486a3.241 3.241 0 0 1-1.48-.404v.036a3.294 3.294 0 0 0 2.628 3.221c-.281.074-.571.11-.862.108a2.902 2.902 0 0 1-.62-.056 3.311 3.311 0 0 0 3.064 2.284A6.593 6.593 0 0 1 .785 12.07 6.147 6.147 0 0 1 0 12.028 9.238 9.238 0 0 0 5.03 13.5a9.273 9.273 0 0 0 6.622-2.713 9.263 9.263 0 0 0 2.704-7.04A6.542 6.542 0 0 0 16 2.044z"/>
</svg>
