<svg xmlns="http://www.w3.org/2000/svg" width="35" height="30" viewBox="0 0 35 30">
    <g fill="none" fill-rule="nonzero">
        <path fill="#F1F3F5" d="M33.542 1.458v14.584h-5.834v-8.75H13.125V1.458z"/>
        <path fill="#B8C2CD" d="M27.708 16.042v5.833h-5.833v-8.75H7.292V7.292h20.416z"/>
        <path fill="#3574FA" d="M21.875 21.875v5.833H1.458V13.125h20.417z"/>
        <path fill="#23262D" d="M33.542 0H13.125c-.805 0-1.458.653-1.458 1.458v4.375H7.292c-.805 0-1.459.654-1.459 1.459v4.375H1.458C.653 11.667 0 12.32 0 13.125v14.583c0 .805.653 1.459 1.458 1.459h20.417c.805 0 1.458-.654 1.458-1.459v-4.375h4.375c.805 0 1.459-.653 1.459-1.458V17.5h4.375c.805 0 1.458-.653 1.458-1.458V1.458C35 .653 34.347 0 33.542 0zM20.417 26.25h-17.5V14.583h17.5V26.25zm5.833-5.833h-2.917v-7.292c0-.805-.653-1.458-1.458-1.458H8.75V8.75h17.5v11.667zm5.833-5.834h-2.916V7.292c0-.805-.654-1.459-1.459-1.459H14.583V2.917h17.5v11.666z"/>
        <path fill="#012E52" d="M8.75 20.417H7.292a1.459 1.459 0 0 0 0 2.916H8.75a1.459 1.459 0 0 0 0-2.916z"/>
    </g>
</svg>
